<svg width="104" height="38" viewBox="0 0 104 38" fill="none" xmlns="http://www.w3.org/2000/svg">
<rect width="104" height="38" fill="#F5F5F5"/>
<g clip-path="url(#clip0_35_42)">
<rect width="104" height="38" fill="white"/>
<path d="M91.1531 29.3012V7.32531H97.342V11.3313H97.5505C97.9153 9.88153 98.5103 8.80372 99.3355 8.0979C100.161 7.38254 101.121 7.02486 102.215 7.02486C102.51 7.02486 102.814 7.0487 103.127 7.09639C103.44 7.13454 103.731 7.19654 104 7.28239V13.363C103.696 13.2485 103.296 13.1579 102.801 13.0911C102.315 13.0244 101.881 12.991 101.498 12.991C100.743 12.991 100.061 13.177 99.4527 13.549C98.8534 13.9114 98.38 14.4217 98.0326 15.0798C97.6938 15.7284 97.5244 16.4915 97.5244 17.369V29.3012H91.1531Z" fill="black"/>
<path d="M75.2964 29.6732C74.0195 29.6732 72.886 29.4395 71.8958 28.9721C70.9142 28.4952 70.1368 27.7799 69.5635 26.8261C68.9989 25.8627 68.7166 24.6561 68.7166 23.2063C68.7166 21.9854 68.912 20.9553 69.3029 20.116C69.6938 19.2766 70.2324 18.5946 70.9186 18.07C71.6048 17.5454 72.3952 17.1496 73.2899 16.8825C74.1846 16.6059 75.1401 16.4199 76.1564 16.3246C77.2942 16.2101 78.2106 16.0909 78.9055 15.9669C79.6004 15.8333 80.1042 15.6473 80.4169 15.4089C80.7383 15.1609 80.899 14.8128 80.899 14.3645V14.2929C80.899 13.5585 80.6688 12.991 80.2085 12.5904C79.7481 12.1898 79.127 11.9895 78.3453 11.9895C77.5027 11.9895 76.8252 12.1898 76.3127 12.5904C75.8002 12.991 75.4745 13.5442 75.3355 14.25L69.4593 14.0211C69.633 12.6857 70.0804 11.4935 70.8013 10.4443C71.5309 9.38555 72.5299 8.55573 73.798 7.95482C75.0749 7.34438 76.608 7.03916 78.3974 7.03916C79.6743 7.03916 80.8512 7.20608 81.9283 7.53991C83.0054 7.86421 83.9435 8.34112 84.7427 8.97063C85.5418 9.59062 86.1585 10.3537 86.5928 11.2598C87.0358 12.1659 87.2573 13.2008 87.2573 14.3645V29.3012H81.2638V26.2395H81.1075C80.7514 26.9834 80.2953 27.613 79.7394 28.128C79.1922 28.6431 78.5451 29.0294 77.798 29.2869C77.0597 29.5444 76.2258 29.6732 75.2964 29.6732ZM77.2638 25.0949C77.9501 25.0949 78.5668 24.9423 79.114 24.637C79.6699 24.3318 80.1129 23.9121 80.443 23.378C80.7731 22.8343 80.9381 22.2048 80.9381 21.4895V19.4006C80.7557 19.5055 80.5342 19.6009 80.2736 19.6867C80.0217 19.7726 79.7438 19.8537 79.4397 19.93C79.1357 20.0063 78.823 20.073 78.5016 20.1303C78.1802 20.1875 77.8719 20.24 77.5766 20.2877C76.9772 20.3926 76.4647 20.5547 76.0391 20.7741C75.6221 20.9935 75.3008 21.2796 75.0749 21.6325C74.8578 21.9759 74.7492 22.386 74.7492 22.863C74.7492 23.5879 74.9837 24.1411 75.4528 24.5226C75.9305 24.9041 76.5342 25.0949 77.2638 25.0949Z" fill="black"/>
<path d="M55.443 38C53.5407 38 51.9121 37.7091 50.557 37.1273C49.202 36.5454 48.1379 35.749 47.3648 34.738C46.5918 33.7269 46.127 32.5823 45.9707 31.3042L52.0033 30.9322C52.1162 31.3805 52.3247 31.7716 52.6287 32.1054C52.9414 32.4393 53.3453 32.6968 53.8404 32.878C54.3442 33.0592 54.9349 33.1498 55.6124 33.1498C56.6808 33.1498 57.5624 32.8637 58.2573 32.2914C58.9609 31.7287 59.3127 30.7415 59.3127 29.3298V25.4669H59.0912C58.8393 26.1441 58.4571 26.7498 57.9446 27.2839C57.4321 27.818 56.7937 28.2377 56.0293 28.5429C55.2736 28.8481 54.405 29.0008 53.4235 29.0008C51.9642 29.0008 50.6265 28.6288 49.4104 27.8848C48.203 27.1313 47.2345 25.9676 46.5049 24.3938C45.7839 22.8105 45.4235 20.7741 45.4235 18.2846C45.4235 15.7189 45.797 13.6062 46.544 11.9465C47.291 10.2774 48.2682 9.04217 49.4756 8.24097C50.6916 7.43976 51.9989 7.03916 53.3974 7.03916C54.4484 7.03916 55.3475 7.23946 56.0945 7.64006C56.8502 8.03113 57.4712 8.53665 57.9577 9.15663C58.4441 9.77661 58.8133 10.4204 59.0652 11.0881H59.2476V7.32531H65.5928V29.387C65.5928 31.247 65.1672 32.816 64.316 34.0941C63.4647 35.3722 62.2747 36.3404 60.7459 36.9985C59.2172 37.6662 57.4495 38 55.443 38ZM55.6384 23.9074C56.4115 23.9074 57.0717 23.6832 57.6189 23.2349C58.1661 22.7866 58.5874 22.1428 58.8827 21.3035C59.1781 20.4641 59.3257 19.4578 59.3257 18.2846C59.3257 17.0924 59.1781 16.067 58.8827 15.2086C58.5961 14.3406 58.1748 13.6729 57.6189 13.2056C57.0717 12.7382 56.4115 12.5045 55.6384 12.5045C54.848 12.5045 54.1792 12.743 53.6319 13.2199C53.0847 13.6968 52.6678 14.3692 52.3811 15.2372C52.1032 16.0956 51.9642 17.1114 51.9642 18.2846C51.9642 19.4578 52.1075 20.4641 52.3941 21.3035C52.6808 22.1428 53.0934 22.7866 53.6319 23.2349C54.1792 23.6832 54.848 23.9074 55.6384 23.9074Z" fill="black"/>
<path d="M29.9544 29.616C28.4778 29.616 27.1357 29.1963 25.9283 28.3569C24.721 27.5176 23.7568 26.2585 23.0358 24.5798C22.3149 22.9011 21.9544 20.817 21.9544 18.3276C21.9544 15.7427 22.3279 13.6157 23.0749 11.9465C23.8219 10.2774 24.7991 9.04217 26.0065 8.24096C27.2226 7.43976 28.5299 7.03916 29.9283 7.03916C30.9794 7.03916 31.8784 7.23946 32.6254 7.64006C33.3724 8.03112 33.9892 8.53665 34.4756 9.15663C34.962 9.7766 35.3312 10.4204 35.5831 11.0881H35.7134V0H42.0847V29.3012H35.7785V25.7387H35.5831C35.3138 26.4159 34.9316 27.0502 34.4365 27.6416C33.9414 28.2329 33.3203 28.7098 32.5733 29.0723C31.835 29.4347 30.962 29.616 29.9544 29.616ZM32.1694 24.1649C32.9425 24.1649 33.6026 23.9265 34.1498 23.4495C34.6971 22.9631 35.1184 22.2811 35.4137 21.4036C35.709 20.5261 35.8567 19.496 35.8567 18.3132C35.8567 17.1114 35.709 16.0766 35.4137 15.2086C35.127 14.3406 34.7058 13.6729 34.1498 13.2056C33.6026 12.7382 32.9425 12.5045 32.1694 12.5045C31.3789 12.5045 30.7101 12.743 30.1629 13.2199C29.6156 13.6968 29.1987 14.3692 28.9121 15.2372C28.6341 16.1052 28.4951 17.1305 28.4951 18.3132C28.4951 19.496 28.6384 20.5261 28.9251 21.4036C29.2117 22.2811 29.6243 22.9631 30.1629 23.4495C30.7101 23.9265 31.3789 24.1649 32.1694 24.1649Z" fill="black"/>
<path d="M0 29.3012V0H18.6059V5.75151H6.44951V11.7605H17.6547V17.5264H6.44951V23.5497H18.6059V29.3012H0Z" fill="black"/>
</g>
<defs>
<clipPath id="clip0_35_42">
<rect width="104" height="38" fill="white"/>
</clipPath>
</defs>
</svg>
